<svg xmlns="http://www.w3.org/2000/svg" width="1254" height="1254" viewBox="0 0 1254 1254" version="1.1"><path d="M 0 627.001 L 0 1254.002 627.250 1253.751 L 1254.500 1253.500 1254.751 626.750 L 1255.002 0 627.501 0 L 0 0 0 627.001 M 0.497 627.500 C 0.497 972.350, 0.611 1113.276, 0.750 940.668 C 0.889 768.060, 0.889 485.910, 0.750 313.668 C 0.611 141.426, 0.497 282.650, 0.497 627.500 M 1005.646 200.695 C 1005.344 202.788, 1004.820 208.100, 1004.481 212.500 C 1003.732 222.226, 999.841 242.140, 996.959 251 C 992.945 263.340, 987.936 272.031, 980.500 279.562 C 976.650 283.460, 971.025 288.029, 968 289.714 C 956.902 295.896, 937.583 300.968, 919.250 302.513 C 912.326 303.096, 911 303.489, 911 304.958 C 911 306.454, 912.653 306.875, 922.414 307.864 C 942.559 309.907, 959.184 315.023, 971.235 322.891 C 980.817 329.146, 987.112 336.426, 992.577 347.571 C 999.204 361.088, 1002.707 376.893, 1005.581 406.250 C 1005.974 410.263, 1006.570 412, 1007.553 412 C 1009.204 412, 1009.666 410.131, 1010.516 400 C 1012.823 372.500, 1020.102 349.044, 1030.707 334.937 C 1041.881 320.071, 1060.420 312.228, 1095 307.734 C 1102.155 306.805, 1104.500 306.135, 1104.500 305.023 C 1104.500 303.874, 1101.467 303.173, 1090.864 301.869 C 1052.815 297.191, 1035.100 287.136, 1023.626 263.706 C 1016.499 249.151, 1011.043 224.886, 1009.753 202.009 C 1009.570 198.756, 1009.044 197.431, 1007.847 197.204 C 1006.614 196.970, 1006.055 197.858, 1005.646 200.695 M 248.401 331.890 C 242.018 334.813, 239.500 339.137, 239.500 347.177 C 239.500 354.632, 241.097 357.740, 246.990 361.750 C 250.262 363.977, 250.651 364, 285.150 364 L 320.003 364 319.752 646.250 L 319.500 928.500 297.320 929 C 276.915 929.460, 274.919 929.665, 272.382 931.562 C 267.677 935.078, 265.697 938.594, 265.256 944.209 C 264.690 951.437, 267.895 957.490, 274 960.718 L 278.394 963.042 343.525 962.771 L 408.657 962.500 412.434 959.618 C 421.344 952.822, 421.213 938.233, 412.182 931.500 C 409.751 929.687, 407.486 929.453, 388 929 L 366.500 928.500 366.500 660.750 C 366.500 513.488, 366.725 393.008, 367 393.017 C 367.275 393.026, 370.457 398.088, 374.071 404.267 C 377.685 410.445, 386.415 425.175, 393.472 437 C 405.301 456.821, 416.098 475.048, 446.786 527 C 453.121 537.725, 464.467 556.850, 471.999 569.500 C 479.532 582.150, 493.027 604.875, 501.990 620 C 510.952 635.125, 524.690 658.300, 532.519 671.500 C 540.347 684.700, 554.086 707.875, 563.050 723 C 572.014 738.125, 584.291 758.825, 590.333 769 C 596.375 779.175, 605.569 794.700, 610.764 803.500 C 615.959 812.300, 620.950 820.351, 621.855 821.392 C 624.419 824.341, 633.081 827.982, 637.500 827.968 C 642.674 827.952, 648.700 825.118, 652.587 820.872 C 654.285 819.017, 668.196 796.350, 683.501 770.500 C 698.805 744.650, 716.946 714.050, 723.814 702.500 C 730.682 690.950, 747.767 662.150, 761.780 638.500 C 775.794 614.850, 792.899 586.050, 799.793 574.500 C 806.687 562.950, 814.449 549.900, 817.043 545.500 C 835.849 513.600, 904.802 398.176, 906.635 395.527 C 907.790 393.859, 908 434.760, 908 661.277 L 908 929 888.750 929.004 C 871.306 929.007, 869.194 929.194, 866.241 930.995 C 860.366 934.577, 857.092 942.349, 858.438 949.521 C 859.244 953.818, 864.324 959.819, 868.702 961.649 C 873.083 963.479, 992.120 963.643, 998.182 961.827 C 1005.262 959.706, 1011.025 950.181, 1009.400 943.287 C 1008.192 938.167, 1004.801 933.257, 1000.996 931.118 C 997.488 929.147, 995.767 929, 976.114 929 L 955 929 955.022 650.750 C 955.043 381.829, 955.106 372.366, 956.900 368.500 C 957.921 366.300, 960.424 362.925, 962.463 361 C 967.571 356.178, 969 353.019, 969 346.553 C 969 341.548, 968.633 340.599, 965.250 336.850 C 959.158 330.098, 958.581 329.997, 926.282 330.022 C 900.439 330.042, 897.091 330.232, 893.500 331.890 C 886.940 334.918, 890.853 328.777, 841.495 413.500 C 809.513 468.397, 802.116 481.061, 786.297 508 C 750.042 569.743, 701.560 652.482, 693.728 665.975 C 688.789 674.487, 682.853 684.612, 680.539 688.475 C 678.224 692.339, 673.834 699.775, 670.782 705 C 667.731 710.225, 660.601 722.375, 654.938 732 C 649.276 741.625, 643.344 751.854, 641.756 754.731 C 640.169 757.608, 638.495 760.194, 638.035 760.478 C 637.576 760.762, 633.850 755.258, 629.755 748.247 C 625.660 741.236, 612.855 719.300, 601.299 699.500 C 589.742 679.700, 575.424 655.175, 569.480 645 C 563.536 634.825, 555.668 621.325, 551.995 615 C 548.322 608.675, 534.819 585.500, 521.987 563.500 C 493.857 515.269, 489.400 507.602, 470.835 475.500 C 462.883 461.750, 444.739 430.475, 430.514 406 C 416.289 381.525, 401.407 355.875, 397.444 349 C 392.015 339.581, 389.202 335.760, 386.034 333.500 L 381.829 330.500 317.165 330.257 C 255.750 330.026, 252.294 330.108, 248.401 331.890" stroke="none" fill="#000000" fill-rule="evenodd"/><path d="M 248.500 332.412 C 236.966 337.538, 236.180 354.871, 247.181 361.500 C 250.285 363.370, 252.770 363.532, 285.500 364 L 320.500 364.500 320.500 646.500 L 320.500 928.500 298.500 929 C 278.107 929.463, 276.244 929.659, 273 931.681 C 268.089 934.741, 265.575 939.436, 265.602 945.500 C 265.628 951.503, 267.821 956.023, 272.235 959.171 L 275.500 961.500 341.571 961.771 L 407.643 962.041 410.980 959.771 C 415.945 956.391, 418.230 952.711, 418.705 947.324 C 419.315 940.414, 415.993 934.253, 410.038 931.250 C 405.859 929.143, 404.320 929, 385.788 929 L 366 929 366.022 660.250 C 366.044 395.967, 366.076 391.541, 367.945 393.974 C 369.925 396.549, 398.458 444.391, 446.985 526.500 C 451.210 533.650, 463.147 553.675, 473.510 571 C 483.873 588.325, 494.450 606.100, 497.015 610.500 C 499.580 614.900, 511.948 635.825, 524.499 657 C 537.050 678.175, 552.495 704.275, 558.820 715 C 604.095 791.768, 619.148 816.919, 621.545 819.804 C 627.672 827.175, 638.287 829.445, 646.659 825.174 C 652.836 822.022, 648.722 828.455, 699.230 743 C 703.618 735.575, 709.352 725.900, 711.972 721.500 C 714.591 717.100, 723.392 702.250, 731.530 688.500 C 752.272 653.451, 770.506 622.739, 775.463 614.500 C 783.008 601.960, 804.120 566.500, 835.001 514.500 C 879.073 440.286, 907.029 393.635, 908.080 392.550 C 908.640 391.971, 909 496.672, 909 660.300 L 909 929 891.250 929.006 C 881.487 929.009, 871.850 929.470, 869.832 930.030 C 867.791 930.597, 864.816 932.584, 863.124 934.511 C 855.730 942.933, 857.575 955.085, 867.017 960.149 C 870.272 961.895, 874.074 962, 933.848 962 C 996.551 962, 997.268 961.977, 1000.996 959.882 C 1012.223 953.572, 1011.388 936.260, 999.599 930.905 C 996.029 929.284, 992.821 929.041, 974.750 929.022 L 954 929 954 651.866 C 954 440.501, 954.282 373.789, 955.190 370.760 C 955.911 368.353, 958.457 364.661, 961.653 361.387 C 969.555 353.294, 970.902 345.546, 965.726 337.963 C 961.104 331.194, 960.001 331, 926.152 331 C 896.604 331, 895.664 331.061, 891.815 333.224 C 887.211 335.812, 888.547 333.672, 845.460 407.500 C 829.091 435.550, 810.299 467.725, 803.702 479 C 797.106 490.275, 790.274 501.975, 788.521 505 C 772.906 531.943, 705.554 646.950, 678.714 692.500 C 671.584 704.600, 662.579 719.900, 658.702 726.500 C 654.826 733.100, 649.787 741.650, 647.503 745.500 C 645.220 749.350, 642.106 754.677, 640.582 757.338 C 637.284 763.099, 639.044 764.975, 624.783 740.500 C 609.350 714.015, 580.660 664.921, 574.234 654 C 571.159 648.775, 567.069 641.800, 565.144 638.500 C 563.220 635.200, 560.424 630.475, 558.932 628 C 555.708 622.653, 536.307 589.362, 522.509 565.500 C 517.102 556.150, 508.999 542.200, 504.502 534.500 C 500.005 526.800, 489.190 508.125, 480.469 493 C 464.894 465.987, 410.724 372.586, 397.534 350 C 389.863 336.865, 387.780 334.288, 383.282 332.371 C 378.613 330.382, 252.983 330.419, 248.500 332.412" stroke="none" fill="#fefcfe" fill-rule="evenodd"/><path d="M 1005.646 200.695 C 1005.344 202.788, 1004.820 208.100, 1004.481 212.500 C 1003.732 222.226, 999.841 242.140, 996.959 251 C 992.945 263.340, 987.936 272.031, 980.500 279.562 C 976.650 283.460, 971.025 288.029, 968 289.714 C 956.902 295.896, 937.583 300.968, 919.250 302.513 C 912.326 303.096, 911 303.489, 911 304.958 C 911 306.454, 912.653 306.875, 922.414 307.864 C 942.559 309.907, 959.184 315.023, 971.235 322.891 C 980.817 329.146, 987.112 336.426, 992.577 347.571 C 999.204 361.088, 1002.707 376.893, 1005.581 406.250 C 1005.974 410.263, 1006.570 412, 1007.553 412 C 1009.204 412, 1009.666 410.131, 1010.516 400 C 1012.823 372.500, 1020.102 349.044, 1030.707 334.937 C 1041.881 320.071, 1060.420 312.228, 1095 307.734 C 1102.155 306.805, 1104.500 306.135, 1104.500 305.023 C 1104.500 303.874, 1101.467 303.173, 1090.864 301.869 C 1052.815 297.191, 1035.100 287.136, 1023.626 263.706 C 1016.499 249.151, 1011.043 224.886, 1009.753 202.009 C 1009.570 198.756, 1009.044 197.431, 1007.847 197.204 C 1006.614 196.970, 1006.055 197.858, 1005.646 200.695 M 283.822 330.750 C 301.600 330.903, 330.400 330.903, 347.822 330.749 C 365.245 330.596, 350.700 330.471, 315.500 330.471 C 280.300 330.471, 266.045 330.597, 283.822 330.750 M 911.812 330.748 C 920.233 330.916, 933.733 330.915, 941.812 330.748 C 949.890 330.580, 943 330.443, 926.500 330.443 C 910 330.444, 903.390 330.581, 911.812 330.748 M 320 646.700 C 319.725 801.910, 319.838 928.562, 320.252 928.148 C 320.665 927.735, 320.890 800.745, 320.752 645.948 L 320.500 364.500 320 646.700 M 954.493 651 C 954.493 804.175, 954.609 866.838, 954.750 790.250 C 954.891 713.663, 954.891 588.338, 954.750 511.750 C 954.609 435.163, 954.493 497.825, 954.493 651 M 907.809 392.750 C 907.639 393.163, 907.726 514.100, 908.003 661.500 L 908.506 929.500 908.753 660.750 C 908.889 512.938, 908.802 392, 908.559 392 C 908.316 392, 907.979 392.337, 907.809 392.750 M 366.392 457 C 366.392 464.425, 366.549 467.462, 366.742 463.750 C 366.934 460.038, 366.934 453.962, 366.742 450.250 C 366.549 446.538, 366.392 449.575, 366.392 457 M 366.395 489.500 C 366.396 497.200, 366.553 500.218, 366.743 496.206 C 366.934 492.195, 366.932 485.895, 366.741 482.206 C 366.549 478.518, 366.393 481.800, 366.395 489.500 M 366.420 558.500 C 366.419 569.500, 366.565 574.136, 366.745 568.803 C 366.924 563.470, 366.925 554.470, 366.746 548.803 C 366.568 543.136, 366.421 547.500, 366.420 558.500 M 366.428 833 C 366.428 845.375, 366.571 850.438, 366.747 844.250 C 366.922 838.063, 366.922 827.938, 366.747 821.750 C 366.571 815.563, 366.428 820.625, 366.428 833 M 310.323 962.750 C 328.375 962.902, 357.625 962.902, 375.323 962.749 C 393.020 962.596, 378.250 962.471, 342.500 962.472 C 306.750 962.472, 292.270 962.597, 310.323 962.750 M 902.322 962.750 C 919.825 962.903, 948.175 962.903, 965.322 962.749 C 982.470 962.596, 968.150 962.471, 933.500 962.471 C 898.850 962.471, 884.820 962.596, 902.322 962.750" stroke="none" fill="#f0a744" fill-rule="evenodd"/></svg>